<svg width="24" height="24" xmlns="http://www.w3.org/2000/svg"><path d="M23.923 7.096a8.702 8.702 0 00-.559-2.954A6.144 6.144 0 0019.855.633a8.804 8.804 0 00-2.913-.56C15.66.016 15.253 0 11.999 0 8.744 0 8.327 0 7.054.073c-.995.02-1.98.21-2.912.56a6.14 6.14 0 00-3.509 3.51 8.735 8.735 0 00-.558 2.911C.017 8.338 0 8.744 0 12c0 3.254 0 3.67.075 4.944.02.997.208 1.98.558 2.915a6.144 6.144 0 003.51 3.508c.93.364 1.915.567 2.913.6 1.283.057 1.69.074 4.944.074 3.255 0 3.672 0 4.945-.075a8.782 8.782 0 002.913-.558 6.15 6.15 0 003.509-3.51c.35-.932.538-1.916.558-2.914.058-1.282.075-1.689.075-4.944-.003-3.255-.003-3.668-.077-4.943zM11.99 18.153a6.16 6.16 0 01-6.162-6.161 6.16 6.16 0 0110.518-4.357 6.161 6.161 0 01-4.356 10.518zM18.397 7.04a1.435 1.435 0 01-1.016-2.453 1.435 1.435 0 012.451 1.016c0 .794-.642 1.437-1.435 1.437z" fill="currentColor"/><path d="M11.99 15.994a4.002 4.002 0 100-8.004 4.002 4.002 0 000 8.004z" fill="currentColor"/></svg>