<svg width="24" height="24" xmlns="http://www.w3.org/2000/svg" viewBox="0 0 160 160"><path fill-rule="evenodd" clip-rule="evenodd" fill="currentColor" d="M80 0c44.2 0 80 35.8 80 80s-35.8 80-80 80S0 124.2 0 80 35.8 0 80 0zm4.8 32.6c5.5.7 9.8 2 14.7 4.3 4.8 2.3 7.8 4.5 11.8 8.5 3.8 3.8 5.8 6.6 8 11.1 3.1 6.2 4.8 13.5 5.1 21.6.1 2.8 0 3.4-.6 4.2-1.2 1.6-3.9 1.3-4.8-.4-.3-.6-.4-1-.5-3.2-.1-3.4-.4-5.6-.8-8.2-1.9-10.3-6.8-18.5-14.7-24.4-6.6-4.9-13.4-7.3-22.2-7.9-3-.2-3.5-.3-4.2-.8-1.3-1-1.3-3.3-.1-4.4.8-.7 1.3-.8 3.9-.7 1.3 0 3.3.2 4.4.3zm-36.2 1.7c.6.2 1.4.6 1.9.9 3 2 11.4 12.7 14.1 18 1.6 3.1 2.1 5.3 1.6 7-.5 1.8-1.4 2.7-5.1 5.8-1.5 1.2-2.9 2.4-3.2 2.8-.6.8-1 2.4-1 3.6 0 2.6 1.7 7.4 4 11.1 1.7 2.9 4.8 6.5 7.9 9.3 3.6 3.3 6.8 5.5 10.4 7.3 4.7 2.3 7.5 2.9 9.5 1.9.5-.2 1.1-.6 1.3-.7.1-.1 1.4-1.6 2.7-3.2 2.5-3.2 3.2-3.8 4.9-4.3 2.2-.8 4.5-.6 6.8.6 1.7.9 5.5 3.2 8 4.9 3.2 2.3 10.1 7.9 11.1 9 1.6 2 1.9 4.6.8 7.5-1.2 3-5.7 8.7-8.9 11.1-2.9 2.2-4.9 3-7.6 3.2-2.2.1-3.2-.1-6-1.3-22.2-9.1-39.9-22.8-54-41.5-7.3-9.8-12.9-19.9-16.8-30.5-2.2-6.2-2.4-8.8-.5-11.9.8-1.3 4.1-4.6 6.6-6.4 4.1-3 6-4.1 7.5-4.5 1.1-.3 2.9-.1 4 .3zM85.9 44c9.6 1.4 17 5.9 21.9 13.1 2.7 4.1 4.4 8.8 5 14 .2 1.9.2 5.3 0 5.9-.2.5-.8 1.3-1.5 1.6-.6.3-1.9.3-2.6-.1-1.2-.6-1.6-1.6-1.6-4.2 0-4.1-1.1-8.4-2.9-11.8-2.1-3.8-5.1-7-8.8-9.2-3.2-1.9-7.9-3.3-12.2-3.7-1.6-.1-2.4-.4-3-1.1-.9-1-1-2.4-.2-3.6.8-1.3 2.1-1.4 5.9-.9zm3.3 12c3.1.7 5.5 1.8 7.5 3.8 2.6 2.5 4 5.5 4.7 9.8.4 2.8.2 3.9-.8 4.8-.9.8-2.6.9-3.7.1-.8-.6-1-1.2-1.2-2.8-.2-2.2-.6-3.7-1.2-5.1-1.4-3-3.9-4.5-8-5-1.9-.2-2.5-.5-3.2-1.2-1.2-1.4-.7-3.6.9-4.4.6-.3.8-.3 2.2-.2 1-.1 2.2 0 2.8.2z"/></svg>
